# 3ds Max Wavefront OBJ Exporter v0.97b - (c)2007 guruware
# File Created: 21.04.2018 02:26:54

#
# object pipe
#

v  9.3969 50.0000 -3.4202
v  10.0000 50.0000 -0.0000
v  10.0000 0.0000 -0.0000
v  9.3969 0.0000 -3.4202
v  7.6604 50.0000 -6.4279
v  7.6604 0.0000 -6.4279
v  5.0000 0.0000 -8.6603
v  5.0000 50.0000 -8.6603
v  1.7365 50.0000 -9.8481
v  1.7365 0.0000 -9.8481
v  -1.7365 50.0000 -9.8481
v  -1.7365 0.0000 -9.8481
v  -5.0000 50.0000 -8.6603
v  -5.0000 0.0000 -8.6603
v  -7.6604 50.0000 -6.4279
v  -7.6604 0.0000 -6.4279
v  -9.3969 50.0000 -3.4202
v  -9.3969 0.0000 -3.4202
v  -10.0000 50.0000 -0.0000
v  -10.0000 0.0000 -0.0000
v  -9.3969 50.0000 3.4202
v  -9.3969 0.0000 3.4202
v  -7.6604 50.0000 6.4279
v  -7.6604 0.0000 6.4279
v  -5.0000 0.0000 8.6603
v  -5.0000 50.0000 8.6603
v  -1.7365 50.0000 9.8481
v  -1.7365 0.0000 9.8481
v  1.7365 0.0000 9.8481
v  1.7365 50.0000 9.8481
v  5.0000 50.0000 8.6603
v  5.0000 0.0000 8.6603
v  7.6604 50.0000 6.4279
v  7.6604 0.0000 6.4279
v  9.3969 50.0000 3.4202
v  9.3969 0.0000 3.4202
v  8.5089 0.0000 -3.0970
v  6.9365 0.0000 -5.8205
v  6.9365 50.0000 -5.8205
v  8.5089 50.0000 -3.0970
v  4.5275 50.0000 -7.8419
v  4.5275 0.0000 -7.8419
v  9.0550 0.0000 -0.0000
v  9.0550 50.0000 -0.0000
v  8.5089 0.0000 3.0970
v  8.5089 50.0000 3.0970
v  6.9365 0.0000 5.8205
v  6.9365 50.0000 5.8205
v  4.5275 0.0000 7.8419
v  4.5275 50.0000 7.8419
v  1.5724 0.0000 8.9175
v  1.5724 50.0000 8.9175
v  -1.5724 0.0000 8.9175
v  -1.5724 50.0000 8.9175
v  -4.5275 0.0000 7.8419
v  -4.5275 50.0000 7.8419
v  -6.9365 0.0000 5.8205
v  -6.9365 50.0000 5.8205
v  -8.5089 0.0000 3.0970
v  -8.5089 50.0000 3.0970
v  -9.0550 0.0000 -0.0000
v  -9.0550 50.0000 -0.0000
v  -8.5089 0.0000 -3.0970
v  -8.5089 50.0000 -3.0970
v  -6.9365 0.0000 -5.8205
v  -6.9365 50.0000 -5.8205
v  -4.5275 0.0000 -7.8419
v  -4.5275 50.0000 -7.8419
v  -1.5724 0.0000 -8.9175
v  -1.5724 50.0000 -8.9175
v  1.5724 0.0000 -8.9175
v  1.5724 50.0000 -8.9175
# 72 vertices

vn 0.6975 0.6701 -0.2539
vn 0.7423 0.6701 0.0000
vn 0.7423 -0.6701 0.0000
vn 0.6975 -0.6701 -0.2539
vn 0.5687 0.6700 -0.4772
vn 0.5687 -0.6700 -0.4772
vn 0.3712 -0.6701 -0.6428
vn 0.3712 0.6701 -0.6428
vn 0.1289 0.6701 -0.7310
vn 0.1289 -0.6701 -0.7310
vn -0.1289 0.6700 -0.7311
vn -0.1289 -0.6700 -0.7311
vn -0.3712 0.6700 -0.6429
vn -0.3712 -0.6700 -0.6429
vn -0.5687 0.6700 -0.4772
vn -0.5687 -0.6700 -0.4772
vn -0.6976 0.6700 -0.2539
vn -0.6976 -0.6700 -0.2539
vn -0.7423 0.6700 -0.0000
vn -0.7423 -0.6700 -0.0000
vn -0.6976 0.6700 0.2539
vn -0.6976 -0.6700 0.2539
vn -0.5687 0.6700 0.4772
vn -0.5687 -0.6700 0.4772
vn -0.3712 -0.6700 0.6429
vn -0.3712 0.6700 0.6429
vn -0.1289 0.6700 0.7311
vn -0.1289 -0.6700 0.7311
vn 0.1289 -0.6700 0.7311
vn 0.1289 0.6700 0.7311
vn 0.3712 0.6700 0.6429
vn 0.3712 -0.6700 0.6429
vn 0.5687 0.6700 0.4772
vn 0.5687 -0.6700 0.4772
vn 0.6976 0.6700 0.2539
vn 0.6976 -0.6700 0.2539
vn -0.6233 -0.7484 0.2269
vn -0.5081 -0.7484 0.4263
vn -0.5081 0.7484 0.4263
vn -0.6233 0.7484 0.2269
vn -0.3316 0.7484 0.5744
vn -0.3316 -0.7484 0.5744
vn -0.6633 -0.7484 -0.0000
vn -0.6633 0.7484 -0.0000
vn -0.6233 -0.7484 -0.2269
vn -0.6233 0.7484 -0.2269
vn -0.5081 -0.7484 -0.4264
vn -0.5081 0.7484 -0.4264
vn -0.3316 -0.7484 -0.5744
vn -0.3316 0.7484 -0.5744
vn -0.1152 -0.7484 -0.6532
vn -0.1152 0.7484 -0.6532
vn 0.1152 -0.7484 -0.6532
vn 0.1152 0.7484 -0.6532
vn 0.3316 -0.7484 -0.5744
vn 0.3316 0.7484 -0.5744
vn 0.5081 -0.7484 -0.4263
vn 0.5081 0.7484 -0.4263
vn 0.6232 -0.7484 -0.2268
vn 0.6232 0.7484 -0.2268
vn 0.6632 -0.7484 -0.0000
vn 0.6632 0.7484 -0.0000
vn 0.6232 -0.7484 0.2269
vn 0.6232 0.7484 0.2269
vn 0.5081 -0.7484 0.4263
vn 0.5081 0.7484 0.4263
vn 0.3316 -0.7484 0.5744
vn 0.3316 0.7484 0.5744
vn 0.1152 -0.7484 0.6532
vn 0.1152 0.7484 0.6532
vn -0.1152 -0.7484 0.6532
vn -0.1152 0.7484 0.6532
# 72 vertex normals

o pipe
g pipe
s 8
f 1//1 2//2 3//3 4//4 
f 5//5 1//1 4//4 6//6 
f 5//5 6//6 7//7 8//8 
f 9//9 8//8 7//7 10//10 
f 11//11 9//9 10//10 12//12 
f 13//13 11//11 12//12 14//14 
f 15//15 13//13 14//14 16//16 
f 17//17 15//15 16//16 18//18 
f 19//19 17//17 18//18 20//20 
f 21//21 19//19 20//20 22//22 
f 23//23 21//21 22//22 24//24 
f 23//23 24//24 25//25 26//26 
f 27//27 26//26 25//25 28//28 
f 27//27 28//28 29//29 30//30 
f 31//31 30//30 29//29 32//32 
f 33//33 31//31 32//32 34//34 
f 35//35 33//33 34//34 36//36 
f 2//2 35//35 36//36 3//3 
s 1
f 6//6 4//4 37//37 38//38 
f 5//5 39//39 40//40 1//1 
s 2
f 41//41 42//42 38//38 39//39 
f 37//37 43//43 44//44 40//40 
f 45//45 46//46 44//44 43//43 
f 45//45 47//47 48//48 46//46 
f 49//49 50//50 48//48 47//47 
f 51//51 52//52 50//50 49//49 
f 51//51 53//53 54//54 52//52 
f 55//55 56//56 54//54 53//53 
f 57//57 58//58 56//56 55//55 
f 57//57 59//59 60//60 58//58 
f 61//61 62//62 60//60 59//59 
f 61//61 63//63 64//64 62//62 
f 65//65 66//66 64//64 63//63 
f 67//67 68//68 66//66 65//65 
f 67//67 69//69 70//70 68//68 
f 71//71 72//72 70//70 69//69 
f 42//42 41//41 72//72 71//71 
f 39//39 38//38 37//37 40//40 
s 1
f 24//24 57//57 55//55 25//25 
f 22//22 59//59 57//57 24//24 
f 20//20 61//61 59//59 22//22 
f 18//18 63//63 61//61 20//20 
f 55//55 53//53 28//28 25//25 
f 53//53 51//51 29//29 28//28 
f 51//51 49//49 32//32 29//29 
f 16//16 65//65 63//63 18//18 
f 14//14 67//67 65//65 16//16 
f 12//12 69//69 67//67 14//14 
f 10//10 71//71 69//69 12//12 
f 49//49 47//47 34//34 32//32 
f 47//47 45//45 36//36 34//34 
f 45//45 43//43 3//3 36//36 
f 43//43 37//37 4//4 3//3 
f 7//7 42//42 71//71 10//10 
f 6//6 38//38 42//42 7//7 
f 56//56 58//58 23//23 26//26 
f 58//58 60//60 21//21 23//23 
f 60//60 62//62 19//19 21//21 
f 62//62 64//64 17//17 19//19 
f 27//27 54//54 56//56 26//26 
f 30//30 52//52 54//54 27//27 
f 31//31 50//50 52//52 30//30 
f 64//64 66//66 15//15 17//17 
f 66//66 68//68 13//13 15//15 
f 68//68 70//70 11//11 13//13 
f 70//70 72//72 9//9 11//11 
f 33//33 48//48 50//50 31//31 
f 35//35 46//46 48//48 33//33 
f 2//2 44//44 46//46 35//35 
f 1//1 40//40 44//44 2//2 
f 72//72 41//41 8//8 9//9 
f 41//41 39//39 5//5 8//8 
# 72 polygons

#
# object aim_y
#

v  -0.0000 -0.0000 10.0000
v  0.1915 -0.1607 10.0000
v  0.2349 -0.0855 10.0000
v  0.2500 -0.0000 10.0000
v  0.0434 -0.2462 10.0000
v  0.1250 -0.2165 10.0000
v  -0.1250 -0.2165 10.0000
v  -0.0434 -0.2462 10.0000
v  -0.2349 -0.0855 10.0000
v  -0.1915 -0.1607 10.0000
v  -0.2349 0.0855 10.0000
v  -0.2500 -0.0000 10.0000
v  -0.1250 0.2165 10.0000
v  -0.1915 0.1607 10.0000
v  0.0434 0.2462 10.0000
v  -0.0434 0.2462 10.0000
v  0.1915 0.1607 10.0000
v  0.1250 0.2165 10.0000
v  0.2349 0.0855 10.0000
v  0.2349 -0.0855 6.0000
v  0.2500 0.0000 6.0000
v  0.1915 -0.1607 6.0000
v  0.1250 -0.2165 6.0000
v  0.0434 -0.2462 6.0000
v  -0.0434 -0.2462 6.0000
v  -0.1250 -0.2165 6.0000
v  -0.1915 -0.1607 6.0000
v  -0.2349 -0.0855 6.0000
v  -0.2500 0.0000 6.0000
v  -0.2349 0.0855 6.0000
v  -0.1915 0.1607 6.0000
v  -0.1250 0.2165 6.0000
v  -0.0434 0.2462 6.0000
v  0.0434 0.2462 6.0000
v  0.1250 0.2165 6.0000
v  0.1915 0.1607 6.0000
v  0.2349 0.0855 6.0000
v  0.2349 -0.0855 2.0000
v  0.2500 0.0000 2.0000
v  0.1915 -0.1607 2.0000
v  0.1250 -0.2165 2.0000
v  0.0434 -0.2462 2.0000
v  -0.0434 -0.2462 2.0000
v  -0.1250 -0.2165 2.0000
v  -0.1915 -0.1607 2.0000
v  -0.2349 -0.0855 2.0000
v  -0.2500 0.0000 2.0000
v  -0.2349 0.0855 2.0000
v  -0.1915 0.1607 2.0000
v  -0.1250 0.2165 2.0000
v  -0.0434 0.2462 2.0000
v  0.0434 0.2462 2.0000
v  0.1250 0.2165 2.0000
v  0.1915 0.1607 2.0000
v  0.2349 0.0855 2.0000
v  0.2349 -0.0855 -2.0000
v  0.2500 0.0000 -2.0000
v  0.1915 -0.1607 -2.0000
v  0.1250 -0.2165 -2.0000
v  0.0434 -0.2462 -2.0000
v  -0.0434 -0.2462 -2.0000
v  -0.1250 -0.2165 -2.0000
v  -0.1915 -0.1607 -2.0000
v  -0.2349 -0.0855 -2.0000
v  -0.2500 0.0000 -2.0000
v  -0.2349 0.0855 -2.0000
v  -0.1915 0.1607 -2.0000
v  -0.1250 0.2165 -2.0000
v  -0.0434 0.2462 -2.0000
v  0.0434 0.2462 -2.0000
v  0.1250 0.2165 -2.0000
v  0.1915 0.1607 -2.0000
v  0.2349 0.0855 -2.0000
v  0.2349 -0.0855 -6.0000
v  0.2500 0.0000 -6.0000
v  0.1915 -0.1607 -6.0000
v  0.1250 -0.2165 -6.0000
v  0.0434 -0.2462 -6.0000
v  -0.0434 -0.2462 -6.0000
v  -0.1250 -0.2165 -6.0000
v  -0.1915 -0.1607 -6.0000
v  -0.2349 -0.0855 -6.0000
v  -0.2500 0.0000 -6.0000
v  -0.2349 0.0855 -6.0000
v  -0.1915 0.1607 -6.0000
v  -0.1250 0.2165 -6.0000
v  -0.0434 0.2462 -6.0000
v  0.0434 0.2462 -6.0000
v  0.1250 0.2165 -6.0000
v  0.1915 0.1607 -6.0000
v  0.2349 0.0855 -6.0000
v  0.2349 -0.0855 -10.0000
v  0.2500 0.0000 -10.0000
v  0.1915 -0.1607 -10.0000
v  0.1250 -0.2165 -10.0000
v  0.0434 -0.2462 -10.0000
v  -0.0434 -0.2462 -10.0000
v  -0.1250 -0.2165 -10.0000
v  -0.1915 -0.1607 -10.0000
v  -0.2349 -0.0855 -10.0000
v  -0.2500 0.0000 -10.0000
v  -0.2349 0.0855 -10.0000
v  -0.1915 0.1607 -10.0000
v  -0.1250 0.2165 -10.0000
v  -0.0434 0.2462 -10.0000
v  0.0434 0.2462 -10.0000
v  0.1250 0.2165 -10.0000
v  0.1915 0.1607 -10.0000
v  0.2349 0.0855 -10.0000
v  -0.0000 0.0000 -10.0000
# 110 vertices

vn 0.0000 -0.0000 1.0000
vn 0.5687 -0.4772 0.6700
vn 0.6975 -0.2539 0.6701
vn 0.7423 0.0000 0.6701
vn 0.1289 -0.7311 0.6700
vn 0.3712 -0.6429 0.6700
vn -0.3712 -0.6429 0.6700
vn -0.1289 -0.7311 0.6700
vn -0.6975 -0.2539 0.6701
vn -0.5687 -0.4772 0.6700
vn -0.6976 0.2539 0.6700
vn -0.7423 0.0000 0.6701
vn -0.3712 0.6429 0.6700
vn -0.5687 0.4772 0.6700
vn 0.1289 0.7311 0.6700
vn -0.1289 0.7311 0.6700
vn 0.5687 0.4772 0.6700
vn 0.3712 0.6429 0.6700
vn 0.6975 0.2539 0.6701
vn 0.9397 -0.3420 -0.0000
vn 1.0000 0.0000 0.0000
vn 0.7660 -0.6428 -0.0000
vn 0.5000 -0.8660 -0.0000
vn 0.1736 -0.9848 -0.0000
vn -0.1736 -0.9848 -0.0000
vn -0.5000 -0.8660 -0.0000
vn -0.7660 -0.6428 -0.0000
vn -0.9397 -0.3420 -0.0000
vn -1.0000 0.0000 0.0000
vn -0.9397 0.3420 0.0000
vn -0.7660 0.6428 0.0000
vn -0.5000 0.8660 0.0000
vn -0.1736 0.9848 0.0000
vn 0.1736 0.9848 0.0000
vn 0.5000 0.8660 0.0000
vn 0.7660 0.6428 0.0000
vn 0.9397 0.3420 0.0000
vn 0.6975 -0.2539 -0.6701
vn 0.7423 0.0000 -0.6701
vn 0.5687 -0.4772 -0.6700
vn 0.3712 -0.6429 -0.6700
vn 0.1289 -0.7311 -0.6700
vn -0.1289 -0.7311 -0.6700
vn -0.3712 -0.6429 -0.6700
vn -0.5687 -0.4772 -0.6700
vn -0.6975 -0.2539 -0.6701
vn -0.7423 0.0000 -0.6701
vn -0.6976 0.2539 -0.6700
vn -0.5687 0.4772 -0.6700
vn -0.3712 0.6429 -0.6700
vn -0.1289 0.7311 -0.6700
vn 0.1289 0.7311 -0.6700
vn 0.3712 0.6429 -0.6700
vn 0.5687 0.4772 -0.6700
vn 0.6975 0.2539 -0.6701
vn 0.0000 0.0000 -1.0000
# 56 vertex normals

o aim_y
g aim_y
s 1
f 73//73 74//74 75//75 76//76 
f 73//73 77//77 78//78 74//74 
f 73//73 79//79 80//80 77//77 
f 73//73 81//81 82//82 79//79 
f 73//73 83//83 84//84 81//81 
f 73//73 85//85 86//86 83//83 
f 73//73 87//87 88//88 85//85 
f 73//73 89//89 90//90 87//87 
f 73//73 76//76 91//91 89//89 
s 8
f 76//76 75//75 92//92 93//93 
f 75//75 74//74 94//94 92//92 
f 74//74 78//78 95//95 94//94 
f 78//78 77//77 96//96 95//95 
f 77//77 80//80 97//97 96//96 
f 80//80 79//79 98//98 97//97 
f 79//79 82//82 99//99 98//98 
f 82//82 81//81 100//100 99//99 
f 81//81 84//84 101//101 100//100 
f 84//84 83//83 102//102 101//101 
f 83//83 86//86 103//103 102//102 
f 86//86 85//85 104//104 103//103 
f 85//85 88//88 105//105 104//104 
f 88//88 87//87 106//106 105//105 
f 87//87 90//90 107//107 106//106 
f 90//90 89//89 108//108 107//107 
f 89//89 91//91 109//109 108//108 
f 91//91 76//76 93//93 109//109 
f 93//93 92//92 110//92 111//93 
f 92//92 94//94 112//94 110//92 
f 94//94 95//95 113//95 112//94 
f 95//95 96//96 114//96 113//95 
f 96//96 97//97 115//97 114//96 
f 97//97 98//98 116//98 115//97 
f 98//98 99//99 117//99 116//98 
f 99//99 100//100 118//100 117//99 
f 100//100 101//101 119//101 118//100 
f 101//101 102//102 120//102 119//101 
f 102//102 103//103 121//103 120//102 
f 103//103 104//104 122//104 121//103 
f 104//104 105//105 123//105 122//104 
f 105//105 106//106 124//106 123//105 
f 106//106 107//107 125//107 124//106 
f 107//107 108//108 126//108 125//107 
f 108//108 109//109 127//109 126//108 
f 109//109 93//93 111//93 127//109 
f 111//93 110//92 128//92 129//93 
f 110//92 112//94 130//94 128//92 
f 112//94 113//95 131//95 130//94 
f 113//95 114//96 132//96 131//95 
f 114//96 115//97 133//97 132//96 
f 115//97 116//98 134//98 133//97 
f 116//98 117//99 135//99 134//98 
f 117//99 118//100 136//100 135//99 
f 118//100 119//101 137//101 136//100 
f 119//101 120//102 138//102 137//101 
f 120//102 121//103 139//103 138//102 
f 121//103 122//104 140//104 139//103 
f 122//104 123//105 141//105 140//104 
f 123//105 124//106 142//106 141//105 
f 124//106 125//107 143//107 142//106 
f 125//107 126//108 144//108 143//107 
f 126//108 127//109 145//109 144//108 
f 127//109 111//93 129//93 145//109 
f 129//93 128//92 146//92 147//93 
f 128//92 130//94 148//94 146//92 
f 130//94 131//95 149//95 148//94 
f 131//95 132//96 150//96 149//95 
f 132//96 133//97 151//97 150//96 
f 133//97 134//98 152//98 151//97 
f 134//98 135//99 153//99 152//98 
f 135//99 136//100 154//100 153//99 
f 136//100 137//101 155//101 154//100 
f 137//101 138//102 156//102 155//101 
f 138//102 139//103 157//103 156//102 
f 139//103 140//104 158//104 157//103 
f 140//104 141//105 159//105 158//104 
f 141//105 142//106 160//106 159//105 
f 142//106 143//107 161//107 160//106 
f 143//107 144//108 162//108 161//107 
f 144//108 145//109 163//109 162//108 
f 145//109 129//93 147//93 163//109 
f 147//93 146//92 164//110 165//111 
f 146//92 148//94 166//112 164//110 
f 148//94 149//95 167//113 166//112 
f 149//95 150//96 168//114 167//113 
f 150//96 151//97 169//115 168//114 
f 151//97 152//98 170//116 169//115 
f 152//98 153//99 171//117 170//116 
f 153//99 154//100 172//118 171//117 
f 154//100 155//101 173//119 172//118 
f 155//101 156//102 174//120 173//119 
f 156//102 157//103 175//121 174//120 
f 157//103 158//104 176//122 175//121 
f 158//104 159//105 177//123 176//122 
f 159//105 160//106 178//124 177//123 
f 160//106 161//107 179//125 178//124 
f 161//107 162//108 180//126 179//125 
f 162//108 163//109 181//127 180//126 
f 163//109 147//93 165//111 181//127 
s 1
f 182//128 181//127 165//111 164//110 
f 182//128 164//110 166//112 167//113 
f 182//128 167//113 168//114 169//115 
f 182//128 169//115 170//116 171//117 
f 182//128 171//117 172//118 173//119 
f 182//128 173//119 174//120 175//121 
f 182//128 175//121 176//122 177//123 
f 182//128 177//123 178//124 179//125 
f 182//128 179//125 180//126 181//127 
# 108 polygons

#
# object aim_x
#

v  10.0000 -0.0000 0.0000
v  10.0000 -0.1607 -0.1915
v  10.0000 -0.0855 -0.2349
v  10.0000 -0.0000 -0.2500
v  10.0000 -0.2462 -0.0434
v  10.0000 -0.2165 -0.1250
v  10.0000 -0.2165 0.1250
v  10.0000 -0.2462 0.0434
v  10.0000 -0.0855 0.2349
v  10.0000 -0.1607 0.1915
v  10.0000 0.0855 0.2349
v  10.0000 -0.0000 0.2500
v  10.0000 0.2165 0.1250
v  10.0000 0.1607 0.1915
v  10.0000 0.2462 -0.0434
v  10.0000 0.2462 0.0434
v  10.0000 0.1607 -0.1915
v  10.0000 0.2165 -0.1250
v  10.0000 0.0855 -0.2349
v  6.0000 -0.0855 -0.2349
v  6.0000 0.0000 -0.2500
v  6.0000 -0.1607 -0.1915
v  6.0000 -0.2165 -0.1250
v  6.0000 -0.2462 -0.0434
v  6.0000 -0.2462 0.0434
v  6.0000 -0.2165 0.1250
v  6.0000 -0.1607 0.1915
v  6.0000 -0.0855 0.2349
v  6.0000 0.0000 0.2500
v  6.0000 0.0855 0.2349
v  6.0000 0.1607 0.1915
v  6.0000 0.2165 0.1250
v  6.0000 0.2462 0.0434
v  6.0000 0.2462 -0.0434
v  6.0000 0.2165 -0.1250
v  6.0000 0.1607 -0.1915
v  6.0000 0.0855 -0.2349
v  2.0000 -0.0855 -0.2349
v  2.0000 0.0000 -0.2500
v  2.0000 -0.1607 -0.1915
v  2.0000 -0.2165 -0.1250
v  2.0000 -0.2462 -0.0434
v  2.0000 -0.2462 0.0434
v  2.0000 -0.2165 0.1250
v  2.0000 -0.1607 0.1915
v  2.0000 -0.0855 0.2349
v  2.0000 0.0000 0.2500
v  2.0000 0.0855 0.2349
v  2.0000 0.1607 0.1915
v  2.0000 0.2165 0.1250
v  2.0000 0.2462 0.0434
v  2.0000 0.2462 -0.0434
v  2.0000 0.2165 -0.1250
v  2.0000 0.1607 -0.1915
v  2.0000 0.0855 -0.2349
v  -2.0000 -0.0855 -0.2349
v  -2.0000 0.0000 -0.2500
v  -2.0000 -0.1607 -0.1915
v  -2.0000 -0.2165 -0.1250
v  -2.0000 -0.2462 -0.0434
v  -2.0000 -0.2462 0.0434
v  -2.0000 -0.2165 0.1250
v  -2.0000 -0.1607 0.1915
v  -2.0000 -0.0855 0.2349
v  -2.0000 0.0000 0.2500
v  -2.0000 0.0855 0.2349
v  -2.0000 0.1607 0.1915
v  -2.0000 0.2165 0.1250
v  -2.0000 0.2462 0.0434
v  -2.0000 0.2462 -0.0434
v  -2.0000 0.2165 -0.1250
v  -2.0000 0.1607 -0.1915
v  -2.0000 0.0855 -0.2349
v  -6.0000 -0.0855 -0.2349
v  -6.0000 0.0000 -0.2500
v  -6.0000 -0.1607 -0.1915
v  -6.0000 -0.2165 -0.1250
v  -6.0000 -0.2462 -0.0434
v  -6.0000 -0.2462 0.0434
v  -6.0000 -0.2165 0.1250
v  -6.0000 -0.1607 0.1915
v  -6.0000 -0.0855 0.2349
v  -6.0000 0.0000 0.2500
v  -6.0000 0.0855 0.2349
v  -6.0000 0.1607 0.1915
v  -6.0000 0.2165 0.1250
v  -6.0000 0.2462 0.0434
v  -6.0000 0.2462 -0.0434
v  -6.0000 0.2165 -0.1250
v  -6.0000 0.1607 -0.1915
v  -6.0000 0.0855 -0.2349
v  -10.0000 -0.0855 -0.2349
v  -10.0000 0.0000 -0.2500
v  -10.0000 -0.1607 -0.1915
v  -10.0000 -0.2165 -0.1250
v  -10.0000 -0.2462 -0.0434
v  -10.0000 -0.2462 0.0434
v  -10.0000 -0.2165 0.1250
v  -10.0000 -0.1607 0.1915
v  -10.0000 -0.0855 0.2349
v  -10.0000 0.0000 0.2500
v  -10.0000 0.0855 0.2349
v  -10.0000 0.1607 0.1915
v  -10.0000 0.2165 0.1250
v  -10.0000 0.2462 0.0434
v  -10.0000 0.2462 -0.0434
v  -10.0000 0.2165 -0.1250
v  -10.0000 0.1607 -0.1915
v  -10.0000 0.0855 -0.2349
v  -10.0000 0.0000 0.0000
# 110 vertices

vn 1.0000 -0.0000 -0.0000
vn 0.6700 -0.4772 -0.5687
vn 0.6701 -0.2539 -0.6975
vn 0.6701 0.0000 -0.7423
vn 0.6700 -0.7311 -0.1289
vn 0.6700 -0.6429 -0.3712
vn 0.6700 -0.6429 0.3712
vn 0.6700 -0.7311 0.1289
vn 0.6701 -0.2539 0.6975
vn 0.6700 -0.4772 0.5687
vn 0.6700 0.2539 0.6976
vn 0.6701 0.0000 0.7423
vn 0.6700 0.6429 0.3712
vn 0.6700 0.4772 0.5687
vn 0.6700 0.7311 -0.1289
vn 0.6700 0.7311 0.1289
vn 0.6700 0.4772 -0.5687
vn 0.6700 0.6429 -0.3712
vn 0.6701 0.2539 -0.6975
vn -0.0000 -0.3420 -0.9397
vn -0.0000 0.0000 -1.0000
vn -0.0000 -0.6428 -0.7660
vn -0.0000 -0.8660 -0.5000
vn -0.0000 -0.9848 -0.1736
vn -0.0000 -0.9848 0.1736
vn -0.0000 -0.8660 0.5000
vn -0.0000 -0.6428 0.7660
vn -0.0000 -0.3420 0.9397
vn 0.0000 0.0000 1.0000
vn 0.0000 0.3420 0.9397
vn 0.0000 0.6428 0.7660
vn 0.0000 0.8660 0.5000
vn 0.0000 0.9848 0.1736
vn 0.0000 0.9848 -0.1736
vn 0.0000 0.8660 -0.5000
vn 0.0000 0.6428 -0.7660
vn 0.0000 0.3420 -0.9397
vn -0.6701 -0.2539 -0.6975
vn -0.6701 0.0000 -0.7423
vn -0.6700 -0.4772 -0.5687
vn -0.6700 -0.6429 -0.3712
vn -0.6700 -0.7311 -0.1289
vn -0.6700 -0.7311 0.1289
vn -0.6700 -0.6429 0.3712
vn -0.6700 -0.4772 0.5687
vn -0.6701 -0.2539 0.6975
vn -0.6701 0.0000 0.7423
vn -0.6700 0.2539 0.6976
vn -0.6700 0.4772 0.5687
vn -0.6700 0.6429 0.3712
vn -0.6700 0.7311 0.1289
vn -0.6700 0.7311 -0.1289
vn -0.6700 0.6429 -0.3712
vn -0.6700 0.4772 -0.5687
vn -0.6701 0.2539 -0.6975
vn -1.0000 0.0000 0.0000
# 56 vertex normals

o aim_x
g aim_x
s 1
f 183//129 184//130 185//131 186//132 
f 183//129 187//133 188//134 184//130 
f 183//129 189//135 190//136 187//133 
f 183//129 191//137 192//138 189//135 
f 183//129 193//139 194//140 191//137 
f 183//129 195//141 196//142 193//139 
f 183//129 197//143 198//144 195//141 
f 183//129 199//145 200//146 197//143 
f 183//129 186//132 201//147 199//145 
s 8
f 186//132 185//131 202//148 203//149 
f 185//131 184//130 204//150 202//148 
f 184//130 188//134 205//151 204//150 
f 188//134 187//133 206//152 205//151 
f 187//133 190//136 207//153 206//152 
f 190//136 189//135 208//154 207//153 
f 189//135 192//138 209//155 208//154 
f 192//138 191//137 210//156 209//155 
f 191//137 194//140 211//157 210//156 
f 194//140 193//139 212//158 211//157 
f 193//139 196//142 213//159 212//158 
f 196//142 195//141 214//160 213//159 
f 195//141 198//144 215//161 214//160 
f 198//144 197//143 216//162 215//161 
f 197//143 200//146 217//163 216//162 
f 200//146 199//145 218//164 217//163 
f 199//145 201//147 219//165 218//164 
f 201//147 186//132 203//149 219//165 
f 203//149 202//148 220//148 221//149 
f 202//148 204//150 222//150 220//148 
f 204//150 205//151 223//151 222//150 
f 205//151 206//152 224//152 223//151 
f 206//152 207//153 225//153 224//152 
f 207//153 208//154 226//154 225//153 
f 208//154 209//155 227//155 226//154 
f 209//155 210//156 228//156 227//155 
f 210//156 211//157 229//157 228//156 
f 211//157 212//158 230//158 229//157 
f 212//158 213//159 231//159 230//158 
f 213//159 214//160 232//160 231//159 
f 214//160 215//161 233//161 232//160 
f 215//161 216//162 234//162 233//161 
f 216//162 217//163 235//163 234//162 
f 217//163 218//164 236//164 235//163 
f 218//164 219//165 237//165 236//164 
f 219//165 203//149 221//149 237//165 
f 221//149 220//148 238//148 239//149 
f 220//148 222//150 240//150 238//148 
f 222//150 223//151 241//151 240//150 
f 223//151 224//152 242//152 241//151 
f 224//152 225//153 243//153 242//152 
f 225//153 226//154 244//154 243//153 
f 226//154 227//155 245//155 244//154 
f 227//155 228//156 246//156 245//155 
f 228//156 229//157 247//157 246//156 
f 229//157 230//158 248//158 247//157 
f 230//158 231//159 249//159 248//158 
f 231//159 232//160 250//160 249//159 
f 232//160 233//161 251//161 250//160 
f 233//161 234//162 252//162 251//161 
f 234//162 235//163 253//163 252//162 
f 235//163 236//164 254//164 253//163 
f 236//164 237//165 255//165 254//164 
f 237//165 221//149 239//149 255//165 
f 239//149 238//148 256//148 257//149 
f 238//148 240//150 258//150 256//148 
f 240//150 241//151 259//151 258//150 
f 241//151 242//152 260//152 259//151 
f 242//152 243//153 261//153 260//152 
f 243//153 244//154 262//154 261//153 
f 244//154 245//155 263//155 262//154 
f 245//155 246//156 264//156 263//155 
f 246//156 247//157 265//157 264//156 
f 247//157 248//158 266//158 265//157 
f 248//158 249//159 267//159 266//158 
f 249//159 250//160 268//160 267//159 
f 250//160 251//161 269//161 268//160 
f 251//161 252//162 270//162 269//161 
f 252//162 253//163 271//163 270//162 
f 253//163 254//164 272//164 271//163 
f 254//164 255//165 273//165 272//164 
f 255//165 239//149 257//149 273//165 
f 257//149 256//148 274//166 275//167 
f 256//148 258//150 276//168 274//166 
f 258//150 259//151 277//169 276//168 
f 259//151 260//152 278//170 277//169 
f 260//152 261//153 279//171 278//170 
f 261//153 262//154 280//172 279//171 
f 262//154 263//155 281//173 280//172 
f 263//155 264//156 282//174 281//173 
f 264//156 265//157 283//175 282//174 
f 265//157 266//158 284//176 283//175 
f 266//158 267//159 285//177 284//176 
f 267//159 268//160 286//178 285//177 
f 268//160 269//161 287//179 286//178 
f 269//161 270//162 288//180 287//179 
f 270//162 271//163 289//181 288//180 
f 271//163 272//164 290//182 289//181 
f 272//164 273//165 291//183 290//182 
f 273//165 257//149 275//167 291//183 
s 1
f 292//184 291//183 275//167 274//166 
f 292//184 274//166 276//168 277//169 
f 292//184 277//169 278//170 279//171 
f 292//184 279//171 280//172 281//173 
f 292//184 281//173 282//174 283//175 
f 292//184 283//175 284//176 285//177 
f 292//184 285//177 286//178 287//179 
f 292//184 287//179 288//180 289//181 
f 292//184 289//181 290//182 291//183 
# 108 polygons

